<?xml version="1.0" encoding="utf-8"?>
<!-- Svg Vector Icons : http://www.onlinewebfonts.com/icon -->
<!DOCTYPE svg PUBLIC "-//W3C//DTD SVG 1.1//EN" "http://www.w3.org/Graphics/SVG/1.1/DTD/svg11.dtd">
<svg version="1.1" xmlns="http://www.w3.org/2000/svg" xmlns:xlink="http://www.w3.org/1999/xlink" x="0px" y="0px" viewBox="0 0 1000 1000" enable-background="new 0 0 1000 1000" xml:space="preserve">
<metadata> Svg Vector Icons : http://www.onlinewebfonts.com/icon </metadata>
<g><g transform="translate(0.000000,512.000000) scale(0.100000,-0.100000)"><path d="M2713.3,5004.7c-49.9-28.8-42.2-65.2,23-118.9c99.8-86.3,153.5-182.3,153.5-282c0-124.7-34.5-214.9-189.9-487.3c-180.3-318.5-184.2-333.8-184.2-567.9c0-222.5,26.8-322.3,130.4-483.4c63.3-95.9,117-130.4,203.3-130.4c103.6,0,109.4,44.1,25,172.7c-101.7,151.6-134.3,287.8-101.7,437.4c13.4,59.5,94,247.5,176.5,416.3c188,374.1,216.8,498.8,165,692.5C3045.1,4916.5,2851.4,5085.3,2713.3,5004.7z"/><path d="M7096.8,4989.4c-59.5-38.4-149.6-157.3-193.8-259c-42.2-95.9-49.9-262.8-15.4-391.4c15.4-65.2,90.2-237.9,163.1-383.7c132.4-262.8,193.8-425.9,193.8-521.8c0-94-57.5-243.6-126.6-335.7c-78.7-103.6-72.9-147.7,21.1-159.2c84.4-9.6,151.6,28.8,212.9,126.6c92.1,142,126.6,249.4,136.2,427.8c13.4,216.8-21.1,331.9-186.1,621.6c-153.5,266.7-191.8,364.5-191.8,489.2c0,99.8,53.7,195.7,153.5,282c67.1,55.6,72.9,92.1,21.1,120.9C7229.2,5035.4,7165.9,5029.7,7096.8,4989.4z"/><path d="M1725.3,4776.4c-65.2-26.9-53.7-78.7,34.5-163.1c189.9-182.3,178.4-310.8-63.3-734.7c-74.8-130.5-147.7-276.3-161.2-324.2c-38.4-128.5-32.6-414.4,9.6-539.1c84.4-245.6,241.7-377.9,356.8-303.1c53.7,34.5,53.7,32.6-40.3,174.6c-155.4,232.1-140,381.8,86.3,836.4c170.7,349.1,207.2,481.5,172.7,656.1C2070.6,4642.1,1874.9,4839.7,1725.3,4776.4z"/><path d="M8136.6,4776.4c-55.6-21.1-180.3-165-212.9-243.6c-99.8-237.9-76.7-393.3,128.5-807.6c228.3-464.3,241.7-619.6,71-859.5l-78.6-109.3l42.2-36.5c82.5-65.2,180.3-28.8,264.7,95.9c101.7,145.8,140,283.9,140,487.3c-1.9,222.5-26.9,297.4-207.2,608.1c-214.9,372.2-226.4,506.5-59.5,683c105.5,111.3,117,155.4,44.1,182.3C8211.4,4799.5,8188.4,4799.5,8136.6,4776.4z"/><path d="M708.5,4436.9c-38.4-15.3-28.8-57.6,21.1-97.8c94-72.9,145.8-174.6,145.8-282c0-132.4-34.5-222.5-180.3-489.2c-159.2-287.8-191.8-389.4-193.8-594.7c0-197.6,55.6-362.6,161.1-481.5c57.6-65.2,84.4-80.6,157.3-88.2c107.4-11.5,132.4,15.4,78.7,88.2c-128.5,174.6-166.9,372.2-109.4,569.8c17.3,61.4,95.9,243.6,174.6,402.9c130.4,262.8,145.8,305,155.4,433.6c13.4,180.3-25,305-130.5,425.9C900.4,4423.4,787.2,4469.5,708.5,4436.9z"/><path d="M9151.5,4429.2c-86.3-24.9-207.2-165-247.5-285.8c-24.9-72.9-30.7-138.1-24.9-241.7c7.7-126.6,23-166.9,155.4-433.6c78.7-161.1,159.2-345.3,176.5-406.7c57.5-197.6,11.5-427.8-109.4-562.1c-24.9-24.9-34.5-55.6-26.8-74.8c19.2-49.9,172.7-24.9,239.8,38.4c138.1,132.4,216.8,422,176.5,654.2c-23,136.2-51.8,201.4-257.1,589c-99.8,188-109.4,218.7-109.4,326.1c0,134.3,44.1,228.3,140,303.1C9372.1,4419.6,9304.9,4475.2,9151.5,4429.2z"/><path d="M4625.9,3709.8c-391.4-32.6-744.3-117-890.1-214.9c-151.6-103.6-155.4-113.2-155.4-573.6v-406.7l-61.4-9.6c-34.5-5.8-149.6-19.2-255.1-30.7c-297.4-32.6-796.1-111.3-1093.5-174.6c-1110.8-232.1-1822.5-588.9-2022-1014.8c-46-95.9-49.9-124.7-48-345.3C108.1-2.3,693.2-936.6,1683.1-1586.9c195.7-128.5,587-335.7,771.2-410.5c59.5-23,109.4-49.9,109.4-57.6c0-7.7-61.4-331.9-136.2-721.3c-151.5-792.3-153.5-821.1-49.9-1026.3c78.6-161.2,303.1-379.8,512.2-502.6c339.6-199.5,815.3-353,1362.1-435.5c236-36.4,356.8-44.1,805.7-44.1c594.7,0,853.7,30.7,1333.3,149.7c671.4,170.7,1181.7,487.3,1348.6,838.3c101.7,211,99.8,243.7-59.5,1060.9l-140,729l289.7,143.9C9111.2-1218.6,9890-165.4,9899.6,939.6c1.9,222.5-1.9,247.5-49.9,351.1c-90.2,191.8-351.1,420.1-646.5,569.8c-535.2,268.6-1529,514.1-2476.7,613.9c-111.3,11.5-220.6,24.9-243.6,30.7c-44.1,7.7-44.1,9.6-44.1,412.5c0,326.1-5.7,414.4-30.7,460.4c-63.3,124.7-331.9,237.9-700.2,295.4C5514.1,3704,4833.1,3725.1,4625.9,3709.8z M5671.4,3366.4c212.9-34.5,402.9-84.4,402.9-105.5c0-32.6-337.7-105.5-631.2-134.3c-360.7-34.5-867.1-17.3-1172.2,40.3c-161.2,30.7-326.1,78.7-326.1,94c0,30.7,383.7,111.3,681,142C4798.6,3420.1,5495,3397.1,5671.4,3366.4z M4332.4,2844.6c163.1-24.9,331.9-32.6,677.2-32.6c485.4,0,769.3,28.8,1007.2,101.7l115.1,36.4v-550.6v-548.7l103.6-565.9c86.3-477.7,97.8-569.8,74.8-587c-51.8-44.1-383.7-140-581.3-170.7c-456.6-69.1-1193.3-55.6-1601.9,28.8c-145.8,28.8-422.1,118.9-447,142c-3.8,3.8,42.2,276.3,99.7,604.3l107.4,594.7v527.6v525.6l115.1-36.4C4063.8,2894.5,4213.5,2863.8,4332.4,2844.6z M3580.4,2060c0-69.1-9.6-184.2-21.1-257.1l-23-132.4l-78.7-9.6c-44.1-5.8-207.2-24.9-366.4-42.2C1742.5,1474.8,766.1,1133.4,641.4,767l-28.8-86.3l-76.7,78.7c-140,145.8-168.8,259-103.6,404.8c153.5,333.8,913.2,669.5,1987.5,876.7c372.2,71,1108.8,168.8,1147.2,149.6C3574.6,2186.6,3580.4,2129,3580.4,2060z M7119.9,2117.5c1448.4-207.2,2482.4-661.9,2484.3-1091.6c0-71-95.9-239.8-166.9-297.4l-53.7-40.3l-26.9,80.6C9233.9,1141,8278.6,1467.2,6834,1630.2c-189.9,21.1-347.2,40.3-349.1,44.1c-19.2,19.2-46.1,230.2-46.1,368.3v155.4l236-24.9C6803.3,2159.7,7004.7,2134.8,7119.9,2117.5z M6899.2,1407.7c99.8-15.3,253.2-36.5,339.6-46c347.2-36.5,600.5-237.9,600.5-477.7c0-71-11.5-94-67.1-145.8c-42.2-40.3-99.8-71-166.9-86.3c-55.6-13.4-151.5-44.1-214.9-71c-61.4-24.9-115.1-42.2-120.9-38.4c-3.8,5.8,61.4,84.4,145.8,174.6c134.3,142,155.4,172.7,155.4,232.1c0,126.6-88.2,178.4-374.1,218.7c-147.7,21.1-201.4,13.4-406.7-61.4c-161.1-57.6-157.3-61.4-197.6,120.9c-30.7,136.2-21.1,176.5,38.4,193.8C6701.6,1440.3,6701.6,1440.3,6899.2,1407.7z M2843.7,1321.4c7.7-13.4,17.3-80.6,23-149.6c5.8-94,1.9-132.4-17.3-149.6c-34.5-24.9-291.6-44.1-329.9-23c-32.6,19.2-63.3,220.6-42.2,283.9c13.4,48,42.2,53.7,214.9,57.5C2776.6,1342.5,2836,1334.8,2843.7,1321.4z M3309.9,1317.5c15.4-21.1,11.5-34.5-17.3-61.4c-19.2-17.3-51.8-69.1-67.1-115.1c-26.9-67.1-28.8-103.6-11.5-228.3c21.1-155.4,63.3-251.3,149.6-349.2c67.1-76.7,399-287.8,475.8-305c32.6-7.7,88.2-24.9,124.7-38.4c36.4-15.3,140-36.5,228.3-46c88.3-9.6,168.8-26.9,180.3-38.4c26.9-26.9-24.9-99.8-128.5-182.3c-67.1-55.6-86.3-59.5-247.5-65.2c-157.3-5.7-193.8,0-333.8,49.9c-86.3,32.6-193.8,84.4-239.8,115.1c-128.5,90.2-274.3,251.3-339.6,376c-101.7,193.8-78.6,427.8,76.7,750.1C3237,1340.6,3267.7,1367.4,3309.9,1317.5z M2112.8,1185.2c26.8-34.5,82.5-138.1,122.8-228.3c40.3-90.2,99.8-203.3,132.4-251.3c86.3-126.6,397.1-412.5,589-542.9C3049,99.3,3148.7,24.5,3181.4-4.3c48-46,51.8-57.5,34.5-94c-30.7-55.6-124.7-40.3-239.8,44.1c-205.3,147.7-283.9,188-368.3,188c-46,0-115.1,13.4-153.5,28.8c-36.5,15.3-117,28.8-178.4,28.8c-122.8,0-165,28.8-145.8,101.7c9.6,44.1,9.6,44.1-147.7,36.5c-86.3-3.8-180.3,1.9-209.1,13.4c-65.2,24.9-71,86.3-13.4,134.3l42.2,32.6l-71,42.2c-76.7,46-92.1,105.5-30.7,138.1c21.1,11.5,59.5,15.3,86.3,7.7c71-17.3,143.9,5.8,143.9,48c0,19.2-24.9,67.1-57.5,107.4c-65.2,82.5-61.4,72.9-46,113.2c7.7,21.1,36.5,30.7,84.4,30.7c101.7,0,122.8,32.6,86.3,134.3c-15.3,44.1-23,88.2-17.3,97.8C2001.5,1265.7,2064.8,1244.6,2112.8,1185.2z M8324.6,1152.6c155.4-59.5,174.6-245.6,32.6-318.5c-107.4-55.6-241.7-30.7-310.8,55.6C7929.4,1031.7,8134.7,1223.5,8324.6,1152.6z M7114.1,939.6c59.5-32.6,113.2-71,118.9-88.2c13.4-32.6-65.2-197.6-113.2-237.9c-28.8-24.9-48-19.2-157.3,38.4c-69.1,36.5-130.4,78.7-136.2,92.1c-9.6,26.9,30.7,126.6,84.4,211C6947.2,1010.6,6987.5,1008.7,7114.1,939.6z M1362.7,874.4c82.5-34.5,126.6-97.8,126.6-184.2c0-262.8-460.4-287.8-508.4-26.9C950.2,830.3,1172.8,953,1362.7,874.4z M8762,767c78.7-21.1,163.1-103.6,180.3-174.6c13.4-55.6-5.8-78.7-105.5-111.3c-36.5-11.5-145.8-69.1-241.7-126.6c-262.8-155.4-308.9-170.7-500.7-157.3c-109.3,7.7-218.7,1.9-337.6-19.2c-283.9-48-567.9-13.4-585.1,72.9c-3.8,17.3,24.9,63.3,61.4,103.6c63.3,67.1,74.8,71,147.7,59.5c44.1-7.7,103.6-24.9,134.3-40.3c28.8-17.3,105.5-28.8,170.7-28.8c118.9,0,174.6,19.2,345.3,120.9c48,26.9,145.8,72.9,218.7,99.8c72.9,26.9,168.8,74.8,214.8,107.4c74.8,49.9,189.9,111.3,218.7,113.2C8689.1,786.1,8723.6,776.5,8762,767z M6728.5,582.8c19.2-23,19.2-48,3.8-109.3c-13.4-44.1-19.2-82.5-17.3-86.3c3.8-1.9,30.7,7.7,61.4,24.9c72.9,38.4,95.9,36.4,142-9.6c49.9-49.9,51.8-170.7,1.9-232.1c-19.2-26.9-82.5-69.1-138.1-94l-101.7-48l76.7-9.6c57.5-7.7,74.8-17.3,74.8-46c0-53.7-86.3-97.8-305-153.5c-253.2-67.1-521.8-67.1-972.6,0c-270.5,38.4-341.5,55.6-376,88.2C5076.7,3.4,5165,57.1,5347.2,13c466.2-115.1,661.9-94,894,97.8c55.6,44.1,88.2,90.2,101.7,140.1c24.9,94,71,138.1,122.8,122.8c92.1-26.9,97.8-23,103.6,76.7C6578.9,590.5,6663.3,661.4,6728.5,582.8z M6009.1,387.1c11.5-7.7,26.9-53.7,34.6-101.7c17.2-122.8-7.7-138.1-226.4-147.7c-209.1-9.6-228.3,3.8-218.7,142c5.8,80.6,11.5,94,53.7,105.5C5717.5,404.4,5982.2,404.4,6009.1,387.1z M815.9,193.3c1112.7-562.1,3493.4-823,5670.8-625.4C7768.3-315,8852.2-36.9,9398.9,312.3l109.4,71l-11.5-53.7c-30.7-117-149.6-385.6-247.5-552.5C8765.8-1044,7823.9-1675.2,6619.1-1986c-546.7-141.9-970.7-191.8-1619.1-191.8c-535.2,0-746.3,17.3-1189.4,97.9C2408.2-1824.8,1282.1-1138,737.3-205.7c-78.6,134.3-245.6,518-245.6,564c0,13.4,42.2-1.9,101.7-40.3C647.1,283.5,748.8,226,815.9,193.3z M4904.1,197.2c159.2-92.1,128.5-305-51.8-368.3c-159.2-55.6-312.7,46-312.7,207.2c0,46,17.3,80.6,65.2,128.5c55.6,55.6,78.7,65.2,155.4,65.2C4810.1,229.8,4875.3,216.4,4904.1,197.2z M7388.4-2843.5l130.4-686.8l-34.5-90.2c-46-120.9-245.6-320.4-425.9-425.9c-303.1-174.6-734.7-312.7-1223.9-389.4c-389.4-61.4-1164.5-61.4-1553.9,0c-487.3,76.7-934.3,218.7-1223.9,389.4c-182.2,107.4-379.9,305-425.9,425.9l-34.5,92.1l128.5,675.3c71,370.3,132.4,679.1,138.1,683c3.8,3.8,117-24.9,251.3-63.3c330-94,636.9-157.3,1011-207.2c257.1-34.5,402.9-42.2,865.2-42.2c613.9-1.9,871,23,1375.5,124.7c266.7,53.7,773.1,191.8,838.3,228.3c19.2,9.6,34.5,7.7,42.2-5.8C7252.2-2149,7317.4-2467.5,7388.4-2843.5z"/></g></g>
</svg>